<svg height="216.116" width="298.183" xmlns="http://www.w3.org/2000/svg" style="position:relative;top:-.800003px" viewBox="155.408 108.877 298.183 216.116" preserveAspectRatio="xMinYMin" overflow="hidden"><defs><linearGradient id="a" x1="0" y1="0" x2="0" y2="1"><stop offset="0%" stop-color="#80c069"/><stop offset="0%"/></linearGradient></defs><path fill="#80c069" d="M158.99 310.992v-25.36h5.96l8.25 19.31h.14l8.29-19.31h5.77v25.36h-4.62v-17.6l-.14-.05-7.78 17.65h-3.19l-7.92-18.05-.14.05v18h-4.62zm35.58 0v-25.36h4.6v18l.14.05 11.2-18.05h4.62v25.36h-4.62v-18l-.14-.05-11.2 18.05h-4.6zm27.52 0v-25.36h4.62v10.71h2.67l8.36-10.71h5.42l.07.12-9.94 12.02 10.74 13.1-.07.12h-5.68l-8.55-10.76h-3.02v10.76h-4.62zm25.22 9.75v-35.11h3.54l.72 3.28q1.24-1.83 3.1-2.79 1.85-.96 4.31-.96 4.71 0 7.32 3.74 2.62 3.74 2.62 9.88v.49q0 5.49-2.63 8.85-2.62 3.36-7.24 3.36-2.34 0-4.11-.78-1.77-.79-3.02-2.36v12.4h-4.61m4.61-16.2q.87 1.57 2.28 2.45 1.4.88 3.44.88 3.28 0 4.97-2.4t1.69-6.2v-.49q0-4.31-1.7-7.09-1.7-2.78-5-2.78-2 0-3.4.9-1.41.91-2.28 2.48v12.25zm21.59-5.95v-.51q0-5.63 3.05-9.27 3.04-3.65 8.27-3.65 5.27 0 8.33 3.63 3.06 3.64 3.06 9.29v.51q0 5.67-3.05 9.28-3.04 3.61-8.29 3.61-5.25 0-8.31-3.62-3.06-3.62-3.06-9.27m4.62 0q0 4.03 1.7 6.66 1.7 2.62 5.05 2.62 3.3 0 5.01-2.62 1.71-2.63 1.71-6.66v-.51q0-3.99-1.72-6.64-1.72-2.65-5.05-2.65-3.3 0-5 2.65-1.7 2.65-1.7 6.64v.51zm22.57 5.04l.04-.14h4.39q0 1.78 1.54 3.09 1.55 1.32 3.99 1.32 2.51 0 3.9-1.16 1.4-1.16 1.4-2.9 0-2.04-1.21-2.98-1.21-.93-3.79-.93h-4.4v-3.75h4.4q2.44 0 3.5-.93 1.05-.92 1.05-2.68 0-1.6-1.21-2.7-1.2-1.1-3.64-1.1-2.18 0-3.66 1.15-1.47 1.15-1.47 2.79h-4.39l-.04-.14q-.14-3.26 2.66-5.31 2.8-2.05 6.9-2.05 4.45 0 6.96 1.91t2.51 5.45q0 1.71-1.03 3.13-1.04 1.41-2.89 2.24 2.14.77 3.26 2.27 1.13 1.5 1.13 3.63 0 3.56-2.73 5.58-2.74 2.02-7.21 2.02-4.13 0-7.1-2.01-2.98-2-2.86-5.8zm24.51-4.83v-1.03q0-5.41 3.23-9.01 3.22-3.6 7.62-3.6 5.14 0 7.76 3.1 2.63 3.09 2.63 8.25v2.88h-16.46l-.07.12q.07 3.65 1.86 6.01 1.78 2.35 4.99 2.35 2.34 0 4.11-.67 1.77-.66 3.06-1.84l1.8 3q-1.36 1.34-3.58 2.23-2.23.89-5.39.89-5.3 0-8.43-3.53-3.13-3.52-3.13-9.15m4.88-3.14l.04.12h11.7v-.61q0-2.72-1.45-4.55-1.46-1.83-4.32-1.83-2.32 0-3.96 1.96-1.64 1.96-2.01 4.91zm18.79 15.33l.1-3.94.96-.02q2.46 0 3.43-2.4.98-2.41.98-8.17v-10.83h17.83v25.36h-4.62v-21.7h-8.57v7.17q0 7.5-2 11.01-1.99 3.52-6.79 3.52h-1.32zm28.27-12.19v-1.03q0-5.41 3.22-9.01 3.23-3.6 7.63-3.6 5.13 0 7.76 3.1 2.62 3.09 2.62 8.25v2.88h-16.45l-.07.12q.07 3.65 1.85 6.01 1.78 2.35 5 2.35 2.34 0 4.11-.67 1.77-.66 3.06-1.84l1.8 3q-1.36 1.34-3.58 2.23-2.23.89-5.39.89-5.3 0-8.43-3.53-3.13-3.52-3.13-9.15m4.88-3.14l.04.12h11.7v-.61q0-2.72-1.46-4.55-1.45-1.83-4.31-1.83-2.32 0-3.96 1.96-1.64 1.96-2.01 4.91zm21.53 15.33v-25.36h4.62v10.97h11.3v-10.97h4.62v25.36h-4.62v-10.78h-11.3v10.78h-4.62zm27.52 0v-25.36h4.62v9.66h6.3q4.5 0 7 2.15 2.49 2.16 2.49 5.6 0 3.47-2.52 5.71-2.51 2.24-6.97 2.24h-10.92m4.62-3.61h6.3q2.49 0 3.67-1.19 1.18-1.2 1.18-2.98 0-1.74-1.19-3.02-1.2-1.29-3.66-1.29h-6.3v8.48z"/><path fill="url(#a)" stroke="#000" d="M0 80a80 80 0 10160 0A80 80 0 100 80" stroke-width="2" transform="translate(219 108.996)"/><path fill="#80c069" d="M349.528 131.097c-25.605 8.985-39.948 29.66-47.62 53.612-6.789-15.145-20.53-28.662-46.844-38.362 0 0-6.952 34.815 1.127 59.845 6.28 19.455 37.809 41.8 37.809 41.8l5.33 3.397 6.137-4.051s32.429-24.082 39.7-46.3c9.413-28.767 4.365-69.945 4.361-69.941z"/></svg>