<svg xmlns="http://www.w3.org/2000/svg" width="531.898" height="200.812"><text font-family="Dooodleista" font-size="40" stroke-miterlimit="10" fill="#090" transform="matrix(1.51 0 0 1.51 351.03 151.98)"><tspan x="-113.66" y="8.98" stroke-width="0" stroke-miterlimit="4">М</tspan><tspan x="-78.09" y="8.98" stroke-width="0" stroke-miterlimit="4">и</tspan><tspan x="-56.69" y="8.98" stroke-width="0" stroke-miterlimit="4">к</tspan><tspan x="-37.26" y="8.98" stroke-width="0" stroke-miterlimit="4">р</tspan><tspan x="-17.26" y="8.98" stroke-width="0" stroke-miterlimit="4">о</tspan><tspan x="2.74" y="8.98" stroke-width="0" stroke-miterlimit="4">з</tspan><tspan x="18.54" y="8.98" stroke-width="0" stroke-miterlimit="4">е</tspan><tspan x="36.29" y="8.98" stroke-width="0" stroke-miterlimit="4">л</tspan><tspan x="56.26" y="8.98" stroke-width="0" stroke-miterlimit="4">е</tspan><tspan x="74.01" y="8.98" stroke-width="0" stroke-miterlimit="4">н</tspan><tspan x="95.41" y="8.98" stroke-width="0" stroke-miterlimit="4">ь</tspan></text><g stroke-miterlimit="10" fill="none"><path d="M95.145 177.685c-40.23 0-72.843-9.282-72.843-20.731 0-5.69 8.057-10.843 21.097-14.59C25.449 146.308 10 154.433 10 161.385c0 11.907 33.918 21.56 75.756 21.56 36.414 0 70.707-9.254 77.983-19-10.079 8.01-36.983 13.741-68.594 13.741z" fill="#25dae8"/><path d="M80.83 145.661C79.623 146.126 91.428 61.087 65.907 10c-.342.035 10.888 15.62 17.243 42.019 6.823 26.205 7.681 61.686 5.367 94.04l-7.687-.398z" fill="#80e53e"/><path d="M66.111 165.095c-.092.003.135-13.397-.37-32.846-.88-19.612-1.226-43.228-9.918-64.016-.247-.197 13.044 8.565 21.933 27.816 9.278 18.75 15.047 44.457 14.506 68.76l-26.151.286z" fill="#34b70f"/><path d="M83.693 165.258c.16.032-.318-12.345 3.788-29.255 2.072-8.349 7.661-17.865 13.63-25.892 5.864-8.078 12.708-14.56 19.75-17.527.18.146-10.457 6.975-12.01 23.535-2.86 12.971-1.926 30.722-2.878 48.788l-22.28.351z" fill="#80e53e"/><path d="M89.714 165.095c-.066.026 2.797-12.914 11.551-24.888 4.164-5.976 10.334-12.187 18.473-14.936 8.228-3.17 17.076.62 20.45 5.918.213.567-8.511-5.242-16.997 1.184-8.332 5.651-15.97 20.784-16.963 32.722H89.714z" fill="#34b70f"/><path d="M80.37 165.095c.065.026-2.798-12.914-11.552-24.888-4.164-5.976-10.334-12.187-18.473-14.936-8.228-3.17-17.076.62-20.45 5.918-.213.567 8.511-5.242 16.997 1.184 8.332 5.651 15.97 20.784 16.963 32.722h16.514z" fill="#80e53e"/></g></svg>